<?xml version="1.0" encoding="utf-8"?>
<!-- Generator: Adobe Illustrator 19.2.1, SVG Export Plug-In . SVG Version: 6.00 Build 0)  -->
<svg version="1.1" id="mask1" xmlns="http://www.w3.org/2000/svg" xmlns:xlink="http://www.w3.org/1999/xlink" x="0px" y="0px"
	 viewBox="0 0 300 150"  xml:space="preserve">
<path d="M0,0v150h300V0H0z M278.6,5.8c1.9,0,3.4,1.5,3.4,3.4c0,1.8-1.5,3.3-3.4,3.3c-1.9,0-3.4-1.5-3.4-3.3
	C275.2,7.3,276.7,5.8,278.6,5.8z M256.7,5.8c1.9,0,3.4,1.5,3.4,3.3c0,1.9-1.5,3.4-3.4,3.4c-1.8,0-3.3-1.5-3.3-3.4
	C253.3,7.3,254.8,5.8,256.7,5.8z M234.8,5.8c1.9,0,3.4,1.5,3.4,3.4c0,1.8-1.5,3.3-3.4,3.3c-1.9,0-3.4-1.5-3.4-3.3
	C231.4,7.3,232.9,5.8,234.8,5.8z M212.9,5.8c1.9,0,3.4,1.5,3.4,3.3c0,1.9-1.5,3.4-3.4,3.4c-1.8,0-3.3-1.5-3.3-3.4
	C209.5,7.3,211,5.8,212.9,5.8z M191,5.8c1.9,0,3.4,1.5,3.4,3.4c0,1.8-1.5,3.3-3.4,3.3c-1.9,0-3.4-1.5-3.4-3.3
	C187.6,7.3,189.1,5.8,191,5.8z M169.1,5.8c1.9,0,3.4,1.5,3.4,3.3c0,1.9-1.5,3.4-3.4,3.4c-1.8,0-3.3-1.5-3.3-3.4
	C165.7,7.3,167.2,5.8,169.1,5.8z M147.1,5.8c1.9,0,3.4,1.5,3.4,3.4c0,1.8-1.5,3.3-3.4,3.3c-1.9,0-3.4-1.5-3.4-3.3
	C143.8,7.3,145.3,5.8,147.1,5.8z M125.2,5.8c1.9,0,3.4,1.5,3.4,3.3c0,1.9-1.5,3.4-3.4,3.4c-1.8,0-3.3-1.5-3.3-3.4
	C121.9,7.3,123.4,5.8,125.2,5.8z M103.3,5.8c1.9,0,3.4,1.5,3.4,3.4c0,1.8-1.5,3.3-3.4,3.3c-1.9,0-3.4-1.5-3.4-3.3
	C100,7.3,101.5,5.8,103.3,5.8z M81.4,5.8c1.9,0,3.4,1.5,3.4,3.3c0,1.9-1.5,3.4-3.4,3.4c-1.8,0-3.3-1.5-3.3-3.4
	C78.1,7.3,79.6,5.8,81.4,5.8z M59.5,5.8c1.9,0,3.4,1.5,3.4,3.4c0,1.8-1.5,3.3-3.4,3.3c-1.9,0-3.4-1.5-3.4-3.3
	C56.2,7.3,57.7,5.8,59.5,5.8z M37.6,5.8c1.9,0,3.4,1.5,3.4,3.3c0,1.9-1.5,3.4-3.4,3.4c-1.8,0-3.3-1.5-3.3-3.4
	C34.3,7.3,35.8,5.8,37.6,5.8z M15.7,5.8c1.9,0,3.4,1.5,3.4,3.4c0,1.8-1.5,3.3-3.4,3.3c-1.9,0-3.4-1.5-3.4-3.3
	C12.4,7.3,13.9,5.8,15.7,5.8z M23.5,118.6l-2.6-8.6h-1.5l4.3,16H19v12c0,2-3,2-3,0v-12h-1v12c0,2-4,2-4,0v-12H7.7l4.3-16h-1.4
	L8,118.7c-0.6,1.9-3.2,1.1-2.6-0.9l2.9-9.1c0.3-1.1,1.7-2.6,4-2.6H18v-0.7c3,0,4.5,1.9,4.8,2.9l3.1,9.5
	C26.5,119.8,24.1,120.6,23.5,118.6z M12.4,101.2c0-1.9,1.5-3.4,3.4-3.4c1.9,0,3.4,1.5,3.4,3.4c0,1.8-1.5,3.3-3.4,3.3
	C13.9,104.5,12.4,103,12.4,101.2z M23.5,72.6L20.9,64h-1.5l4.3,16H19v12c0,2-3,2-3,0V80h-1v12c0,2-4,2-4,0V80H7.7L12,64h-1.4L8,72.7
	c-0.6,1.9-3.2,1.1-2.6-0.9l2.9-9.1c0.3-1.1,1.7-2.6,4-2.6H18v-0.7c3,0,4.5,1.9,4.8,2.9l3.1,9.5C26.5,73.8,24.1,74.6,23.5,72.6z
	 M12.4,55.2c0-1.9,1.5-3.4,3.4-3.4c1.9,0,3.4,1.5,3.4,3.4c0,1.8-1.5,3.3-3.4,3.3C13.9,58.5,12.4,57,12.4,55.2z M23.5,26.6L20.9,18
	h-1.5l4.3,16H19v12c0,2-3,2-3,0V34h-1v12c0,2-4,2-4,0V34H7.7L12,18h-1.4L8,26.7c-0.6,1.9-3.2,1.1-2.6-0.9l2.9-9.1
	c0.3-1.1,1.7-2.6,4-2.6H18v-0.7c3,0,4.5,1.9,4.8,2.9l3.1,9.5C26.5,27.8,24.1,28.6,23.5,26.6z M46,120c0,2-3,2-3,0v-10h-0.8l0,27.1
	c0,1-1.1,1.8-2.1,1.8c-1,0-2.1-0.9-2.1-1.9v-15h-2v15c0,1-0.4,2.4-1.5,2.4c-1,0-1.4-0.4-1.4-1.4H33v-28h-2v10c0,2-3,2-3,0v-10.4
	c0-2.4,2.3-4.4,4.7-4.4l8.9,0c2.6,0,4.4,2.2,4.4,4.4V120z M34.3,101.2c0-1.8,1.5-3.3,3.3-3.3c1.9,0,3.4,1.5,3.4,3.3
	c0,1.9-1.5,3.4-3.4,3.4C35.8,104.5,34.3,103,34.3,101.2z M46,74c0,2-3,2-3,0V64h-0.8l0,27.1c0,1-1.1,1.8-2.1,1.8
	c-1,0-2.1-0.9-2.1-1.9V76h-2v15c0,1-0.4,2.4-1.5,2.4c-1,0-1.4-0.4-1.4-1.4H33V64h-2v10c0,2-3,2-3,0V63.6c0-2.4,2.3-4.4,4.7-4.4
	l8.9,0c2.6,0,4.4,2.2,4.4,4.4V74z M34.3,55.2c0-1.8,1.5-3.3,3.3-3.3c1.9,0,3.4,1.5,3.4,3.3c0,1.9-1.5,3.4-3.4,3.4
	C35.8,58.5,34.3,57,34.3,55.2z M46,28c0,2-3,2-3,0V18h-0.8l0,27.1c0,1-1.1,1.8-2.1,1.8c-1,0-2.1-0.9-2.1-1.9V30h-2v15
	c0,1-0.4,2.4-1.5,2.4c-1,0-1.4-0.4-1.4-1.4H33V18h-2v10c0,2-3,2-3,0V17.6c0-2.4,2.3-4.4,4.7-4.4l8.9,0c2.6,0,4.4,2.2,4.4,4.4V28z
	 M67.3,118.6l-2.6-8.6h-1.5l4.3,16H63v12c0,2-3,2-3,0v-12h-2v12c0,2-3,2-3,0v-12h-3.5l4.3-16h-1.4l-2.6,8.7
	c-0.6,1.9-3.2,1.1-2.6-0.9l2.9-9.1c0.3-1.1,1.7-2.6,4-2.6H62v-0.7c3,0,4.4,1.9,4.7,2.9l3,9.5C70.3,119.8,67.9,120.6,67.3,118.6z
	 M56.2,101.2c0-1.9,1.5-3.4,3.4-3.4c1.9,0,3.4,1.5,3.4,3.4c0,1.8-1.5,3.3-3.4,3.3C57.7,104.5,56.2,103,56.2,101.2z M67.3,72.6
	L64.7,64h-1.5l4.3,16H63v12c0,2-3,2-3,0V80h-2v12c0,2-3,2-3,0V80h-3.5l4.3-16h-1.4l-2.6,8.7c-0.6,1.9-3.2,1.1-2.6-0.9l2.9-9.1
	c0.3-1.1,1.7-2.6,4-2.6H62v-0.7c3,0,4.4,1.9,4.7,2.9l3,9.5C70.3,73.8,67.9,74.6,67.3,72.6z M56.2,55.2c0-1.9,1.5-3.4,3.4-3.4
	c1.9,0,3.4,1.5,3.4,3.4c0,1.8-1.5,3.3-3.4,3.3C57.7,58.5,56.2,57,56.2,55.2z M67.3,26.6L64.7,18h-1.5l4.3,16H63v12c0,2-3,2-3,0V34
	h-2v12c0,2-3,2-3,0V34h-3.5l4.3-16h-1.4l-2.6,8.7c-0.6,1.9-3.2,1.1-2.6-0.9l2.9-9.1c0.3-1.1,1.7-2.6,4-2.6H62v-0.7
	c3,0,4.4,1.9,4.7,2.9l3,9.5C70.3,27.8,67.9,28.6,67.3,26.6z M90,120c0,2-3,2-3,0v-10h-1l0,27.1c0,1-1,1.8-2,1.8c-1,0-2-0.9-2-1.9
	v-15h-2v15c0,1-0.5,2.4-1.6,2.4c-1,0-1.4-0.4-1.4-1.4H77v-28h-2v10c0,2-3,2-3,0v-10.4c0-2.4,2.2-4.4,4.6-4.4l9,0
	c2.6,0,4.4,2.2,4.4,4.4V120z M78.1,101.2c0-1.8,1.5-3.3,3.3-3.3c1.9,0,3.4,1.5,3.4,3.3c0,1.9-1.5,3.4-3.4,3.4
	C79.6,104.5,78.1,103,78.1,101.2z M90,74c0,2-3,2-3,0V64h-1l0,27.1c0,1-1,1.8-2,1.8c-1,0-2-0.9-2-1.9V76h-2v15c0,1-0.5,2.4-1.6,2.4
	c-1,0-1.4-0.4-1.4-1.4H77V64h-2v10c0,2-3,2-3,0V63.6c0-2.4,2.2-4.4,4.6-4.4l9,0c2.6,0,4.4,2.2,4.4,4.4V74z M78.1,55.2
	c0-1.8,1.5-3.3,3.3-3.3c1.9,0,3.4,1.5,3.4,3.3c0,1.9-1.5,3.4-3.4,3.4C79.6,58.5,78.1,57,78.1,55.2z M90,28c0,2-3,2-3,0V18h-1l0,27.1
	c0,1-1,1.8-2,1.8c-1,0-2-0.9-2-1.9V30h-2v15c0,1-0.5,2.4-1.6,2.4c-1,0-1.4-0.4-1.4-1.4H77V18h-2v10c0,2-3,2-3,0V17.6
	c0-2.4,2.2-4.4,4.6-4.4l9,0c2.6,0,4.4,2.2,4.4,4.4V28z M111.1,118.6l-2.6-8.6H107l4.3,16H107v12c0,2-3,2-3,0v-12h-2v12c0,2-3,2-3,0
	v-12h-3.7l4.3-16h-1.4l-2.6,8.7c-0.6,1.9-3.2,1.1-2.6-0.9l2.9-9.1c0.3-1.1,1.7-2.6,4-2.6h6.1v-0.7c2,0,4.3,1.9,4.6,2.9l3,9.5
	C114.2,119.8,111.7,120.6,111.1,118.6z M100,101.2c0-1.9,1.5-3.4,3.4-3.4c1.9,0,3.4,1.5,3.4,3.4c0,1.8-1.5,3.3-3.4,3.3
	C101.5,104.5,100,103,100,101.2z M111.1,72.6l-2.6-8.6H107l4.3,16H107v12c0,2-3,2-3,0V80h-2v12c0,2-3,2-3,0V80h-3.7l4.3-16h-1.4
	l-2.6,8.7c-0.6,1.9-3.2,1.1-2.6-0.9l2.9-9.1c0.3-1.1,1.7-2.6,4-2.6h6.1v-0.7c2,0,4.3,1.9,4.6,2.9l3,9.5
	C114.2,73.8,111.7,74.6,111.1,72.6z M100,55.2c0-1.9,1.5-3.4,3.4-3.4c1.9,0,3.4,1.5,3.4,3.4c0,1.8-1.5,3.3-3.4,3.3
	C101.5,58.5,100,57,100,55.2z M111.1,26.6l-2.6-8.6H107l4.3,16H107v12c0,2-3,2-3,0V34h-2v12c0,2-3,2-3,0V34h-3.7l4.3-16h-1.4
	l-2.6,8.7c-0.6,1.9-3.2,1.1-2.6-0.9l2.9-9.1c0.3-1.1,1.7-2.6,4-2.6h6.1v-0.7c2,0,4.3,1.9,4.6,2.9l3,9.5
	C114.2,27.8,111.7,28.6,111.1,26.6z M134,120c0,2-3,2-3,0v-10h-1.2l0,27.1c0,1-0.9,1.8-1.9,1.8c-1,0-1.9-0.9-1.9-1.9v-15h-2v15
	c0,1-0.6,2.4-1.6,2.4c-1,0-1.8-0.4-1.8-1.4H120v-28h-1v10c0,2-3,2-3,0v-10.4c0-2.4,2.1-4.4,4.5-4.4l9,0c2.6,0,4.5,2.2,4.5,4.4V120z
	 M121.9,101.2c0-1.8,1.5-3.3,3.3-3.3c1.9,0,3.4,1.5,3.4,3.3c0,1.9-1.5,3.4-3.4,3.4C123.4,104.5,121.9,103,121.9,101.2z M134,74
	c0,2-3,2-3,0V64h-1.2l0,27.1c0,1-0.9,1.8-1.9,1.8c-1,0-1.9-0.9-1.9-1.9V76h-2v15c0,1-0.6,2.4-1.6,2.4c-1,0-1.8-0.4-1.8-1.4H120V64
	h-1v10c0,2-3,2-3,0V63.6c0-2.4,2.1-4.4,4.5-4.4l9,0c2.6,0,4.5,2.2,4.5,4.4V74z M121.9,55.2c0-1.8,1.5-3.3,3.3-3.3
	c1.9,0,3.4,1.5,3.4,3.3c0,1.9-1.5,3.4-3.4,3.4C123.4,58.5,121.9,57,121.9,55.2z M134,28c0,2-3,2-3,0V18h-1.2l0,27.1
	c0,1-0.9,1.8-1.9,1.8c-1,0-1.9-0.9-1.9-1.9V30h-2v15c0,1-0.6,2.4-1.6,2.4c-1,0-1.8-0.4-1.8-1.4H120V18h-1v10c0,2-3,2-3,0V17.6
	c0-2.4,2.1-4.4,4.5-4.4l9,0c2.6,0,4.5,2.2,4.5,4.4V28z M154.9,118.6l-2.6-8.6h-1.5l4.3,16H151v12c0,2-3,2-3,0v-12h-2v12c0,2-3,2-3,0
	v-12h-3.9l4.3-16H142l-2.6,8.7c-0.6,1.9-3.2,1.1-2.6-0.9l2.9-9.1c0.3-1.1,1.7-2.6,4-2.6h6.3v-0.7c2,0,4.2,1.9,4.5,2.9l2.9,9.5
	C158,119.8,155.5,120.6,154.9,118.6z M143.8,101.2c0-1.9,1.5-3.4,3.4-3.4c1.9,0,3.4,1.5,3.4,3.4c0,1.8-1.5,3.3-3.4,3.3
	C145.3,104.5,143.8,103,143.8,101.2z M154.9,72.6l-2.6-8.6h-1.5l4.3,16H151v12c0,2-3,2-3,0V80h-2v12c0,2-3,2-3,0V80h-3.9l4.3-16H142
	l-2.6,8.7c-0.6,1.9-3.2,1.1-2.6-0.9l2.9-9.1c0.3-1.1,1.7-2.6,4-2.6h6.3v-0.7c2,0,4.2,1.9,4.5,2.9l2.9,9.5
	C158,73.8,155.5,74.6,154.9,72.6z M143.8,55.2c0-1.9,1.5-3.4,3.4-3.4c1.9,0,3.4,1.5,3.4,3.4c0,1.8-1.5,3.3-3.4,3.3
	C145.3,58.5,143.8,57,143.8,55.2z M154.9,26.6l-2.6-8.6h-1.5l4.3,16H151v12c0,2-3,2-3,0V34h-2v12c0,2-3,2-3,0V34h-3.9l4.3-16H142
	l-2.6,8.7c-0.6,1.9-3.2,1.1-2.6-0.9l2.9-9.1c0.3-1.1,1.7-2.6,4-2.6h6.3v-0.7c2,0,4.2,1.9,4.5,2.9l2.9,9.5
	C158,27.8,155.5,28.6,154.9,26.6z M177,120c0,2-2,2-2,0v-10h-1.4l0,27.1c0,1-1.3,1.8-2.3,1.8c-1,0-2.3-0.9-2.3-1.9v-15h-1v15
	c0,1-0.7,2.4-1.7,2.4c-1,0-1.8-0.4-1.8-1.4H164v-28h-1v10c0,2-3,2-3,0v-10.4c0-2.4,2.1-4.4,4.4-4.4l8.6,0c2.6,0,4,2.2,4,4.4V120z
	 M165.7,101.2c0-1.8,1.5-3.3,3.3-3.3c1.9,0,3.4,1.5,3.4,3.3c0,1.9-1.5,3.4-3.4,3.4C167.2,104.5,165.7,103,165.7,101.2z M177,74
	c0,2-2,2-2,0V64h-1.4l0,27.1c0,1-1.3,1.8-2.3,1.8c-1,0-2.3-0.9-2.3-1.9V76h-1v15c0,1-0.7,2.4-1.7,2.4c-1,0-1.8-0.4-1.8-1.4H164V64
	h-1v10c0,2-3,2-3,0V63.6c0-2.4,2.1-4.4,4.4-4.4l8.6,0c2.6,0,4,2.2,4,4.4V74z M165.7,55.2c0-1.8,1.5-3.3,3.3-3.3
	c1.9,0,3.4,1.5,3.4,3.3c0,1.9-1.5,3.4-3.4,3.4C167.2,58.5,165.7,57,165.7,55.2z M177,28c0,2-2,2-2,0V18h-1.4l0,27.1
	c0,1-1.3,1.8-2.3,1.8c-1,0-2.3-0.9-2.3-1.9V30h-1v15c0,1-0.7,2.4-1.7,2.4c-1,0-1.8-0.4-1.8-1.4H164V18h-1v10c0,2-3,2-3,0V17.6
	c0-2.4,2.1-4.4,4.4-4.4l8.6,0c2.6,0,4,2.2,4,4.4V28z M198.7,118.6l-2.6-8.6h-1.5l4.3,16h-5v12c0,2-3,2-3,0v-12h-1v12c0,2-3,2-3,0
	v-12h-4.1l4.3-16h-1.4l-2.6,8.7c-0.6,1.9-3.2,1.1-2.6-0.9l2.9-9.1c0.3-1.1,1.7-2.6,4-2.6h6.5v-0.7c2,0,4.1,1.9,4.4,2.9l2.9,9.5
	C201.9,119.8,199.3,120.6,198.7,118.6z M187.6,101.2c0-1.9,1.5-3.4,3.4-3.4c1.9,0,3.4,1.5,3.4,3.4c0,1.8-1.5,3.3-3.4,3.3
	C189.1,104.5,187.6,103,187.6,101.2z M198.7,72.6l-2.6-8.6h-1.5l4.3,16h-5v12c0,2-3,2-3,0V80h-1v12c0,2-3,2-3,0V80h-4.1l4.3-16h-1.4
	l-2.6,8.7c-0.6,1.9-3.2,1.1-2.6-0.9l2.9-9.1c0.3-1.1,1.7-2.6,4-2.6h6.5v-0.7c2,0,4.1,1.9,4.4,2.9l2.9,9.5
	C201.9,73.8,199.3,74.6,198.7,72.6z M187.6,55.2c0-1.9,1.5-3.4,3.4-3.4c1.9,0,3.4,1.5,3.4,3.4c0,1.8-1.5,3.3-3.4,3.3
	C189.1,58.5,187.6,57,187.6,55.2z M198.7,26.6l-2.6-8.6h-1.5l4.3,16h-5v12c0,2-3,2-3,0V34h-1v12c0,2-3,2-3,0V34h-4.1l4.3-16h-1.4
	l-2.6,8.7c-0.6,1.9-3.2,1.1-2.6-0.9l2.9-9.1c0.3-1.1,1.7-2.6,4-2.6h6.5v-0.7c2,0,4.1,1.9,4.4,2.9l2.9,9.5
	C201.9,27.8,199.3,28.6,198.7,26.6z M221,120c0,2-2,2-2,0v-10h-1.6l0,27.1c0,1-1.2,1.8-2.2,1.8c-1,0-2.2-0.9-2.2-1.9v-15h-1v15
	c0,1-0.8,2.4-1.8,2.4c-1,0-1.7-0.4-1.7-1.4H208v-28h-2v10c0,2-2,2-2,0v-10.4c0-2.4,2-4.4,4.3-4.4l8.6,0c2.6,0,4.1,2.2,4.1,4.4V120z
	 M209.5,101.2c0-1.8,1.5-3.3,3.3-3.3c1.9,0,3.4,1.5,3.4,3.3c0,1.9-1.5,3.4-3.4,3.4C211,104.5,209.5,103,209.5,101.2z M221,74
	c0,2-2,2-2,0V64h-1.6l0,27.1c0,1-1.2,1.8-2.2,1.8c-1,0-2.2-0.9-2.2-1.9V76h-1v15c0,1-0.8,2.4-1.8,2.4c-1,0-1.7-0.4-1.7-1.4H208V64
	h-2v10c0,2-2,2-2,0V63.6c0-2.4,2-4.4,4.3-4.4l8.6,0c2.6,0,4.1,2.2,4.1,4.4V74z M209.5,55.2c0-1.8,1.5-3.3,3.3-3.3
	c1.9,0,3.4,1.5,3.4,3.3c0,1.9-1.5,3.4-3.4,3.4C211,58.5,209.5,57,209.5,55.2z M221,28c0,2-2,2-2,0V18h-1.6l0,27.1
	c0,1-1.2,1.8-2.2,1.8c-1,0-2.2-0.9-2.2-1.9V30h-1v15c0,1-0.8,2.4-1.8,2.4c-1,0-1.7-0.4-1.7-1.4H208V18h-2v10c0,2-2,2-2,0V17.6
	c0-2.4,2-4.4,4.3-4.4l8.6,0c2.6,0,4.1,2.2,4.1,4.4V28z M242.5,118.6l-2.6-8.6h-1.5l4.3,16H238v12c0,2-3,2-3,0v-12h-1v12c0,2-4,2-4,0
	v-12h-3.3l4.3-16h-1.4l-2.6,8.7c-0.6,1.9-3.2,1.1-2.6-0.9l2.9-9.1c0.3-1.1,1.7-2.6,4-2.6h5.7v-0.7c3,0,4.5,1.9,4.8,2.9l3.1,9.5
	C245.5,119.8,243.1,120.6,242.5,118.6z M231.4,101.2c0-1.9,1.5-3.4,3.4-3.4c1.9,0,3.4,1.5,3.4,3.4c0,1.8-1.5,3.3-3.4,3.3
	C232.9,104.5,231.4,103,231.4,101.2z M242.5,72.6l-2.6-8.6h-1.5l4.3,16H238v12c0,2-3,2-3,0V80h-1v12c0,2-4,2-4,0V80h-3.3l4.3-16
	h-1.4l-2.6,8.7c-0.6,1.9-3.2,1.1-2.6-0.9l2.9-9.1c0.3-1.1,1.7-2.6,4-2.6h5.7v-0.7c3,0,4.5,1.9,4.8,2.9l3.1,9.5
	C245.5,73.8,243.1,74.6,242.5,72.6z M231.4,55.2c0-1.9,1.5-3.4,3.4-3.4c1.9,0,3.4,1.5,3.4,3.4c0,1.8-1.5,3.3-3.4,3.3
	C232.9,58.5,231.4,57,231.4,55.2z M242.5,26.6l-2.6-8.6h-1.5l4.3,16H238v12c0,2-3,2-3,0V34h-1v12c0,2-4,2-4,0V34h-3.3l4.3-16h-1.4
	l-2.6,8.7c-0.6,1.9-3.2,1.1-2.6-0.9l2.9-9.1c0.3-1.1,1.7-2.6,4-2.6h5.7v-0.7c3,0,4.5,1.9,4.8,2.9l3.1,9.5
	C245.5,27.8,243.1,28.6,242.5,26.6z M265,120c0,2-3,2-3,0v-10h-0.8l0,27.1c0,1-1.1,1.8-2.1,1.8c-1,0-2.1-0.9-2.1-1.9v-15h-2v15
	c0,1-0.4,2.4-1.4,2.4c-1,0-1.4-0.4-1.4-1.4H252v-28h-2v10c0,2-3,2-3,0v-10.4c0-2.4,2.4-4.4,4.7-4.4l8.9,0c2.6,0,4.4,2.2,4.4,4.4V120
	z M253.3,101.2c0-1.8,1.5-3.3,3.3-3.3c1.9,0,3.4,1.5,3.4,3.3c0,1.9-1.5,3.4-3.4,3.4C254.8,104.5,253.3,103,253.3,101.2z M265,74
	c0,2-3,2-3,0V64h-0.8l0,27.1c0,1-1.1,1.8-2.1,1.8c-1,0-2.1-0.9-2.1-1.9V76h-2v15c0,1-0.4,2.4-1.4,2.4c-1,0-1.4-0.4-1.4-1.4H252V64
	h-2v10c0,2-3,2-3,0V63.6c0-2.4,2.4-4.4,4.7-4.4l8.9,0c2.6,0,4.4,2.2,4.4,4.4V74z M253.3,55.2c0-1.8,1.5-3.3,3.3-3.3
	c1.9,0,3.4,1.5,3.4,3.3c0,1.9-1.5,3.4-3.4,3.4C254.8,58.5,253.3,57,253.3,55.2z M265,28c0,2-3,2-3,0V18h-0.8l0,27.1
	c0,1-1.1,1.8-2.1,1.8c-1,0-2.1-0.9-2.1-1.9V30h-2v15c0,1-0.4,2.4-1.4,2.4c-1,0-1.4-0.4-1.4-1.4H252V18h-2v10c0,2-3,2-3,0V17.6
	c0-2.4,2.4-4.4,4.7-4.4l8.9,0c2.6,0,4.4,2.2,4.4,4.4V28z M286.3,118.6l-2.6-8.6h-1.5l4.3,16H282v12c0,2-3,2-3,0v-12h-2v12
	c0,2-3,2-3,0v-12h-3.5l4.3-16h-1.4l-2.6,8.7c-0.6,1.9-3.2,1.1-2.6-0.9l2.9-9.1c0.3-1.1,1.7-2.6,4-2.6h5.9v-0.7c3,0,4.4,1.9,4.7,2.9
	l3,9.5C289.3,119.8,286.9,120.6,286.3,118.6z M275.2,101.2c0-1.9,1.5-3.4,3.4-3.4c1.9,0,3.4,1.5,3.4,3.4c0,1.8-1.5,3.3-3.4,3.3
	C276.7,104.5,275.2,103,275.2,101.2z M286.3,72.6l-2.6-8.6h-1.5l4.3,16H282v12c0,2-3,2-3,0V80h-2v12c0,2-3,2-3,0V80h-3.5l4.3-16
	h-1.4l-2.6,8.7c-0.6,1.9-3.2,1.1-2.6-0.9l2.9-9.1c0.3-1.1,1.7-2.6,4-2.6h5.9v-0.7c3,0,4.4,1.9,4.7,2.9l3,9.5
	C289.3,73.8,286.9,74.6,286.3,72.6z M275.2,55.2c0-1.9,1.5-3.4,3.4-3.4c1.9,0,3.4,1.5,3.4,3.4c0,1.8-1.5,3.3-3.4,3.3
	C276.7,58.5,275.2,57,275.2,55.2z M286.3,26.6l-2.6-8.6h-1.5l4.3,16H282v12c0,2-3,2-3,0V34h-2v12c0,2-3,2-3,0V34h-3.5l4.3-16h-1.4
	l-2.6,8.7c-0.6,1.9-3.2,1.1-2.6-0.9l2.9-9.1c0.3-1.1,1.7-2.6,4-2.6h5.9v-0.7c3,0,4.4,1.9,4.7,2.9l3,9.5
	C289.3,27.8,286.9,28.6,286.3,26.6z"/>
</svg>
